<?xml version="1.0" encoding="UTF-8"?>
<svg id="Capa_2" xmlns="http://www.w3.org/2000/svg" version="1.1" viewBox="0 0 45 45">
  <!-- Generator: Adobe Illustrator 29.4.0, SVG Export Plug-In . SVG Version: 2.1.0 Build 152)  -->
  <defs>
    <style>
      .st0 {
        fill: #7ac6d2;
      }

      .st1 {
        fill: #fff;
      }

      .st2 {
        fill: #dd7522;
      }

      .st3 {
        fill: #428ecd;
      }
    </style>
  </defs>
  <path class="st1" d="M22.51,19.58c-1.92-2.42-4.38-1.11-4.66-.95l.12.22-.11-.23.24.44c.39-.22,2.39-1.22,4.02.83.05.06.12.09.2.09.05,0,.11-.02.16-.05.11-.09.13-.24.04-.35h-.01Z"/>
  <path class="st3" d="M33.92,26.92c0,3.05-1.19,5.92-3.35,8.08s-5.03,3.35-8.08,3.35-5.92-1.19-8.08-3.35-3.35-5.03-3.35-8.08c0-5.11,5.12-12.02,8.85-17.06.81-1.09,1.57-2.12,2.19-3,.09-.13.23-.2.39-.2s.3.08.39.2c.62.89,1.38,1.92,2.19,3,3.73,5.04,8.85,11.95,8.85,17.06Z"/>
  <path class="st0" d="M22.5,6.66c-6.6,13.57-8.64,25.06,0,31.69-3.05,0-5.92-1.19-8.08-3.35s-3.35-5.03-3.35-8.08c0-5.11,5.12-12.02,8.85-17.06.81-1.09,1.57-2.12,2.19-3,.09-.13.23-.2.39-.2Z"/>
  <path class="st1" d="M31.06,31.47l-6.41-6.41c.61-.94.96-2.05.96-3.25,0-3.3-2.68-5.98-5.98-5.98s-5.98,2.68-5.98,5.98,2.68,5.98,5.98,5.98c1.38,0,2.65-.47,3.66-1.26l6.35,6.35c.2.2.45.29.71.29s.51-.1.71-.29c.39-.39.39-1.02,0-1.41ZM15.65,21.81c0-2.19,1.79-3.98,3.98-3.98s3.98,1.79,3.98,3.98-1.79,3.98-3.98,3.98-3.98-1.79-3.98-3.98Z"/>
  <path class="st1" d="M22,20.9c-.15,0-.31-.07-.4-.2-.86-1.17-2.4-1.49-3.45-.73-.22.16-.54.11-.7-.11-.16-.22-.12-.54.11-.7,1.49-1.09,3.66-.67,4.84.94.16.22.12.54-.11.7-.09.07-.19.1-.3.1Z"/>
  <g>
    <path class="st2" d="M10.6,38.02c-.08-.21-.1-.41-.06-.61s.14-.38.3-.54l.62.66c-.09.1-.13.2-.12.3s.05.2.13.29c.09.09.18.14.27.16.09.01.18-.01.25-.08.06-.06.1-.13.1-.21,0-.08-.01-.17-.04-.25-.03-.09-.08-.2-.16-.35-.1-.21-.18-.4-.23-.55s-.06-.31-.03-.48c.03-.17.12-.33.28-.48.24-.22.51-.31.8-.26.3.05.58.21.83.49.26.28.41.57.44.87.03.3-.08.57-.31.81l-.63-.68c.08-.08.11-.17.11-.27,0-.1-.05-.19-.13-.28-.07-.08-.15-.12-.23-.13s-.16.02-.24.09c-.08.08-.11.18-.08.3.03.12.09.29.19.51.1.22.17.4.22.55s.06.31.03.48c-.03.17-.12.32-.27.46-.15.14-.31.22-.5.26-.19.04-.38.02-.59-.06-.2-.07-.39-.21-.57-.4-.18-.19-.3-.38-.38-.59Z"/>
    <path class="st2" d="M14.3,41.06l-.16-1.44-.58,1.02-.74-.42,1.83-3.22.74.42-1.01,1.78,1.3-.57.92.52-1.7.64.33,1.79-.92-.52Z"/>
    <path class="st2" d="M16.58,39.8c.16-.18.35-.3.56-.36.21-.06.43-.06.65,0,.19.05.34.14.47.25s.2.25.25.4l.11-.38.82.23-.76,2.69-.82-.23.11-.38c-.12.1-.26.17-.42.21-.17.04-.34.03-.53-.02-.22-.06-.4-.17-.55-.34-.15-.17-.24-.37-.29-.61-.05-.24-.03-.5.05-.77.08-.28.2-.5.36-.68ZM18.19,40.52c-.08-.15-.2-.25-.37-.29-.16-.05-.32-.03-.47.06-.15.09-.25.23-.31.44s-.05.38.03.54c.08.15.2.25.37.3.16.05.32.03.47-.06s.25-.23.31-.44c.06-.21.05-.38-.03-.54Z"/>
    <path class="st2" d="M22.38,40.46c.18.22.26.52.23.89l-.11,1.63-.85-.06.1-1.51c.01-.19-.03-.33-.12-.44-.09-.11-.22-.17-.38-.18-.16-.01-.3.03-.4.13s-.16.24-.17.42l-.1,1.51-.85-.06.18-2.78.85.06-.02.37c.09-.12.22-.21.37-.27.15-.06.32-.09.5-.07.33.02.58.15.76.37Z"/>
    <path class="st2" d="M25.51,42.7l-1.36-1.39.19,1.54-.85.11-.44-3.48.85-.11.2,1.53.96-1.68,1-.13-1.13,1.88,1.62,1.6-1.04.13Z"/>
    <path class="st2" d="M27.68,39.41c.12-.13.26-.22.44-.27l.26.87-.22.07c-.21.06-.34.15-.42.27-.08.12-.08.29-.01.51l.37,1.24-.82.25-.8-2.67.82-.25.13.45c.05-.18.14-.33.25-.46Z"/>
    <path class="st2" d="M28.69,39.67c0-.24.05-.46.17-.65.11-.19.27-.34.47-.44.18-.09.35-.13.52-.13.17,0,.32.04.45.12l-.18-.35.76-.39,1.28,2.48-.76.39-.18-.35c-.02.15-.07.3-.17.44-.09.14-.23.25-.4.34-.2.1-.41.15-.63.13-.22-.02-.43-.1-.62-.25-.2-.15-.36-.34-.49-.6-.13-.26-.2-.5-.2-.75ZM30.36,39.1c-.16-.06-.32-.04-.47.03-.15.08-.25.2-.3.36-.05.16-.03.34.07.53.1.19.23.31.39.37.16.06.32.05.47-.03.15-.08.25-.2.3-.36.05-.16.02-.34-.07-.53-.1-.19-.23-.31-.39-.37Z"/>
    <path class="st2" d="M33.26,36.11c.29.02.56.17.81.44l1.11,1.19-.62.58-1.03-1.11c-.13-.14-.26-.21-.4-.22-.14,0-.27.04-.39.15-.12.11-.18.24-.18.38,0,.14.06.28.19.42l1.03,1.11-.62.58-1.9-2.04.63-.58.25.27c-.02-.15,0-.3.06-.45s.15-.29.29-.42c.24-.22.5-.32.79-.3Z"/>
  </g>
</svg>